<mxfile host="app.diagrams.net" modified="2023-06-25T07:19:17.363Z" agent="Mozilla/5.0 (Windows NT 10.0; Win64; x64) AppleWebKit/537.36 (KHTML, like Gecko) Chrome/113.0.0.0 Safari/537.36" etag="Sx7CDAqtnJwmgi23X5Ds" version="21.5.0" type="github" pages="4">
  <diagram name="第 1 页" id="575FpAUIDsB1zLtyvgLs">
    <mxGraphModel dx="1674" dy="764" grid="1" gridSize="10" guides="1" tooltips="1" connect="1" arrows="1" fold="1" page="1" pageScale="1" pageWidth="3300" pageHeight="4681" math="0" shadow="0">
      <root>
        <mxCell id="0" />
        <mxCell id="1" parent="0" />
        <mxCell id="_aK5RSi0-uj2bKADfXYd-3" value="" style="edgeStyle=orthogonalEdgeStyle;rounded=0;orthogonalLoop=1;jettySize=auto;html=1;" parent="1" source="_aK5RSi0-uj2bKADfXYd-1" target="_aK5RSi0-uj2bKADfXYd-2" edge="1">
          <mxGeometry relative="1" as="geometry" />
        </mxCell>
        <mxCell id="_aK5RSi0-uj2bKADfXYd-1" value="开始" style="strokeWidth=2;html=1;shape=mxgraph.flowchart.start_1;whiteSpace=wrap;" parent="1" vertex="1">
          <mxGeometry x="2710" y="1070" width="100" height="60" as="geometry" />
        </mxCell>
        <mxCell id="_aK5RSi0-uj2bKADfXYd-5" value="" style="edgeStyle=orthogonalEdgeStyle;rounded=0;orthogonalLoop=1;jettySize=auto;html=1;" parent="1" source="_aK5RSi0-uj2bKADfXYd-2" target="_aK5RSi0-uj2bKADfXYd-4" edge="1">
          <mxGeometry relative="1" as="geometry" />
        </mxCell>
        <mxCell id="_aK5RSi0-uj2bKADfXYd-2" value="获取背包数据" style="whiteSpace=wrap;html=1;strokeWidth=2;" parent="1" vertex="1">
          <mxGeometry x="2700" y="1160" width="120" height="60" as="geometry" />
        </mxCell>
        <mxCell id="_aK5RSi0-uj2bKADfXYd-7" value="否" style="edgeStyle=orthogonalEdgeStyle;rounded=0;orthogonalLoop=1;jettySize=auto;html=1;" parent="1" source="_aK5RSi0-uj2bKADfXYd-4" target="_aK5RSi0-uj2bKADfXYd-6" edge="1">
          <mxGeometry relative="1" as="geometry" />
        </mxCell>
        <mxCell id="_aK5RSi0-uj2bKADfXYd-14" value="" style="edgeStyle=orthogonalEdgeStyle;rounded=0;orthogonalLoop=1;jettySize=auto;html=1;" parent="1" source="_aK5RSi0-uj2bKADfXYd-4" target="_aK5RSi0-uj2bKADfXYd-13" edge="1">
          <mxGeometry relative="1" as="geometry" />
        </mxCell>
        <mxCell id="wcpN3T7502vlbVWj3Yrp-1" value="是" style="edgeLabel;html=1;align=center;verticalAlign=middle;resizable=0;points=[];" parent="_aK5RSi0-uj2bKADfXYd-14" vertex="1" connectable="0">
          <mxGeometry x="-0.7689" y="1" relative="1" as="geometry">
            <mxPoint as="offset" />
          </mxGeometry>
        </mxCell>
        <mxCell id="_aK5RSi0-uj2bKADfXYd-4" value="是否阶段满级" style="rhombus;whiteSpace=wrap;html=1;strokeWidth=2;" parent="1" vertex="1">
          <mxGeometry x="2720" y="1240" width="80" height="80" as="geometry" />
        </mxCell>
        <mxCell id="wcpN3T7502vlbVWj3Yrp-2" style="edgeStyle=orthogonalEdgeStyle;rounded=0;orthogonalLoop=1;jettySize=auto;html=1;" parent="1" source="_aK5RSi0-uj2bKADfXYd-6" target="_aK5RSi0-uj2bKADfXYd-13" edge="1">
          <mxGeometry relative="1" as="geometry" />
        </mxCell>
        <mxCell id="wcpN3T7502vlbVWj3Yrp-3" value="否" style="edgeLabel;html=1;align=center;verticalAlign=middle;resizable=0;points=[];" parent="wcpN3T7502vlbVWj3Yrp-2" vertex="1" connectable="0">
          <mxGeometry x="-0.7638" y="1" relative="1" as="geometry">
            <mxPoint as="offset" />
          </mxGeometry>
        </mxCell>
        <mxCell id="8qKk5oME3xs0Mru_cFyp-2" value="是" style="edgeStyle=orthogonalEdgeStyle;rounded=0;orthogonalLoop=1;jettySize=auto;html=1;" parent="1" source="_aK5RSi0-uj2bKADfXYd-6" target="8qKk5oME3xs0Mru_cFyp-1" edge="1">
          <mxGeometry relative="1" as="geometry" />
        </mxCell>
        <mxCell id="_aK5RSi0-uj2bKADfXYd-6" value="数量&lt;br&gt;是否足够" style="rhombus;whiteSpace=wrap;html=1;strokeWidth=2;" parent="1" vertex="1">
          <mxGeometry x="2720" y="1360" width="80" height="80" as="geometry" />
        </mxCell>
        <mxCell id="_aK5RSi0-uj2bKADfXYd-11" value="" style="edgeStyle=orthogonalEdgeStyle;rounded=0;orthogonalLoop=1;jettySize=auto;html=1;" parent="1" source="_aK5RSi0-uj2bKADfXYd-8" target="_aK5RSi0-uj2bKADfXYd-10" edge="1">
          <mxGeometry relative="1" as="geometry" />
        </mxCell>
        <mxCell id="_aK5RSi0-uj2bKADfXYd-8" value="更新道具背包" style="whiteSpace=wrap;html=1;strokeWidth=2;" parent="1" vertex="1">
          <mxGeometry x="2700" y="1750" width="120" height="60" as="geometry" />
        </mxCell>
        <mxCell id="8qKk5oME3xs0Mru_cFyp-10" value="" style="edgeStyle=orthogonalEdgeStyle;rounded=0;orthogonalLoop=1;jettySize=auto;html=1;" parent="1" source="_aK5RSi0-uj2bKADfXYd-10" target="8qKk5oME3xs0Mru_cFyp-8" edge="1">
          <mxGeometry relative="1" as="geometry" />
        </mxCell>
        <mxCell id="_aK5RSi0-uj2bKADfXYd-10" value="更新武将卡背包" style="whiteSpace=wrap;html=1;strokeWidth=2;" parent="1" vertex="1">
          <mxGeometry x="2700" y="1830" width="120" height="60" as="geometry" />
        </mxCell>
        <mxCell id="wcpN3T7502vlbVWj3Yrp-15" value="" style="edgeStyle=orthogonalEdgeStyle;rounded=0;orthogonalLoop=1;jettySize=auto;html=1;" parent="1" source="_aK5RSi0-uj2bKADfXYd-13" target="_aK5RSi0-uj2bKADfXYd-15" edge="1">
          <mxGeometry relative="1" as="geometry" />
        </mxCell>
        <mxCell id="_aK5RSi0-uj2bKADfXYd-13" value="抛异常" style="whiteSpace=wrap;html=1;strokeWidth=2;" parent="1" vertex="1">
          <mxGeometry x="2880" y="2100" width="120" height="60" as="geometry" />
        </mxCell>
        <mxCell id="_aK5RSi0-uj2bKADfXYd-15" value="结束" style="strokeWidth=2;html=1;shape=mxgraph.flowchart.terminator;whiteSpace=wrap;" parent="1" vertex="1">
          <mxGeometry x="2710" y="2100" width="100" height="60" as="geometry" />
        </mxCell>
        <mxCell id="wcpN3T7502vlbVWj3Yrp-9" value="否" style="edgeStyle=orthogonalEdgeStyle;rounded=0;orthogonalLoop=1;jettySize=auto;html=1;" parent="1" source="wcpN3T7502vlbVWj3Yrp-4" target="_aK5RSi0-uj2bKADfXYd-8" edge="1">
          <mxGeometry relative="1" as="geometry" />
        </mxCell>
        <mxCell id="wcpN3T7502vlbVWj3Yrp-12" value="" style="edgeStyle=orthogonalEdgeStyle;rounded=0;orthogonalLoop=1;jettySize=auto;html=1;" parent="1" source="wcpN3T7502vlbVWj3Yrp-4" target="wcpN3T7502vlbVWj3Yrp-11" edge="1">
          <mxGeometry relative="1" as="geometry" />
        </mxCell>
        <mxCell id="wcpN3T7502vlbVWj3Yrp-14" value="是" style="edgeLabel;html=1;align=center;verticalAlign=middle;resizable=0;points=[];" parent="wcpN3T7502vlbVWj3Yrp-12" vertex="1" connectable="0">
          <mxGeometry x="-0.6845" relative="1" as="geometry">
            <mxPoint as="offset" />
          </mxGeometry>
        </mxCell>
        <mxCell id="wcpN3T7502vlbVWj3Yrp-4" value="经验是否&lt;br&gt;溢出" style="rhombus;whiteSpace=wrap;html=1;strokeWidth=2;" parent="1" vertex="1">
          <mxGeometry x="2720" y="1620" width="80" height="80" as="geometry" />
        </mxCell>
        <mxCell id="wcpN3T7502vlbVWj3Yrp-8" value="" style="edgeStyle=orthogonalEdgeStyle;rounded=0;orthogonalLoop=1;jettySize=auto;html=1;" parent="1" source="wcpN3T7502vlbVWj3Yrp-6" target="_aK5RSi0-uj2bKADfXYd-15" edge="1">
          <mxGeometry relative="1" as="geometry" />
        </mxCell>
        <mxCell id="wcpN3T7502vlbVWj3Yrp-6" value="返回更新经验值" style="whiteSpace=wrap;html=1;strokeWidth=2;" parent="1" vertex="1">
          <mxGeometry x="2700" y="2010" width="120" height="60" as="geometry" />
        </mxCell>
        <mxCell id="wcpN3T7502vlbVWj3Yrp-13" value="" style="edgeStyle=orthogonalEdgeStyle;rounded=0;orthogonalLoop=1;jettySize=auto;html=1;" parent="1" source="wcpN3T7502vlbVWj3Yrp-11" target="_aK5RSi0-uj2bKADfXYd-15" edge="1">
          <mxGeometry relative="1" as="geometry" />
        </mxCell>
        <mxCell id="wcpN3T7502vlbVWj3Yrp-11" value="返回溢出经验值" style="whiteSpace=wrap;html=1;strokeWidth=2;" parent="1" vertex="1">
          <mxGeometry x="2550" y="2100" width="120" height="60" as="geometry" />
        </mxCell>
        <mxCell id="8qKk5oME3xs0Mru_cFyp-5" value="是" style="edgeStyle=orthogonalEdgeStyle;rounded=0;orthogonalLoop=1;jettySize=auto;html=1;" parent="1" source="8qKk5oME3xs0Mru_cFyp-1" target="wcpN3T7502vlbVWj3Yrp-4" edge="1">
          <mxGeometry relative="1" as="geometry" />
        </mxCell>
        <mxCell id="8qKk5oME3xs0Mru_cFyp-12" style="edgeStyle=orthogonalEdgeStyle;rounded=0;orthogonalLoop=1;jettySize=auto;html=1;" parent="1" source="8qKk5oME3xs0Mru_cFyp-1" target="_aK5RSi0-uj2bKADfXYd-13" edge="1">
          <mxGeometry relative="1" as="geometry">
            <Array as="points">
              <mxPoint x="2940" y="1530" />
            </Array>
          </mxGeometry>
        </mxCell>
        <mxCell id="8qKk5oME3xs0Mru_cFyp-13" value="否" style="edgeLabel;html=1;align=center;verticalAlign=middle;resizable=0;points=[];" parent="8qKk5oME3xs0Mru_cFyp-12" vertex="1" connectable="0">
          <mxGeometry x="-0.8787" y="2" relative="1" as="geometry">
            <mxPoint as="offset" />
          </mxGeometry>
        </mxCell>
        <mxCell id="8qKk5oME3xs0Mru_cFyp-1" value="银币是否够" style="rhombus;whiteSpace=wrap;html=1;strokeWidth=2;" parent="1" vertex="1">
          <mxGeometry x="2720" y="1490" width="80" height="80" as="geometry" />
        </mxCell>
        <mxCell id="8qKk5oME3xs0Mru_cFyp-11" value="" style="edgeStyle=orthogonalEdgeStyle;rounded=0;orthogonalLoop=1;jettySize=auto;html=1;" parent="1" source="8qKk5oME3xs0Mru_cFyp-8" target="wcpN3T7502vlbVWj3Yrp-6" edge="1">
          <mxGeometry relative="1" as="geometry" />
        </mxCell>
        <mxCell id="8qKk5oME3xs0Mru_cFyp-8" value="更新角色银币" style="whiteSpace=wrap;html=1;strokeWidth=2;" parent="1" vertex="1">
          <mxGeometry x="2700" y="1920" width="120" height="60" as="geometry" />
        </mxCell>
      </root>
    </mxGraphModel>
  </diagram>
  <diagram id="Onb9Uq2YgozO-E28IOqt" name="第 2 页">
    <mxGraphModel dx="1674" dy="764" grid="1" gridSize="10" guides="1" tooltips="1" connect="1" arrows="1" fold="1" page="1" pageScale="1" pageWidth="3300" pageHeight="4681" math="0" shadow="0">
      <root>
        <mxCell id="0" />
        <mxCell id="1" parent="0" />
        <mxCell id="YtwmLYCVhBaYAQ8aIxp3-1" value="" style="edgeStyle=orthogonalEdgeStyle;rounded=0;orthogonalLoop=1;jettySize=auto;html=1;" parent="1" source="YtwmLYCVhBaYAQ8aIxp3-2" target="YtwmLYCVhBaYAQ8aIxp3-4" edge="1">
          <mxGeometry relative="1" as="geometry" />
        </mxCell>
        <mxCell id="YtwmLYCVhBaYAQ8aIxp3-2" value="开始" style="strokeWidth=2;html=1;shape=mxgraph.flowchart.start_1;whiteSpace=wrap;" parent="1" vertex="1">
          <mxGeometry x="2710" y="1070" width="100" height="60" as="geometry" />
        </mxCell>
        <mxCell id="YtwmLYCVhBaYAQ8aIxp3-3" value="" style="edgeStyle=orthogonalEdgeStyle;rounded=0;orthogonalLoop=1;jettySize=auto;html=1;" parent="1" source="YtwmLYCVhBaYAQ8aIxp3-4" target="YtwmLYCVhBaYAQ8aIxp3-7" edge="1">
          <mxGeometry relative="1" as="geometry" />
        </mxCell>
        <mxCell id="YtwmLYCVhBaYAQ8aIxp3-4" value="获取背包数据" style="whiteSpace=wrap;html=1;strokeWidth=2;" parent="1" vertex="1">
          <mxGeometry x="2700" y="1160" width="120" height="60" as="geometry" />
        </mxCell>
        <mxCell id="YtwmLYCVhBaYAQ8aIxp3-6" value="" style="edgeStyle=orthogonalEdgeStyle;rounded=0;orthogonalLoop=1;jettySize=auto;html=1;" parent="1" source="YtwmLYCVhBaYAQ8aIxp3-7" target="YtwmLYCVhBaYAQ8aIxp3-15" edge="1">
          <mxGeometry relative="1" as="geometry" />
        </mxCell>
        <mxCell id="YtwmLYCVhBaYAQ8aIxp3-18" value="否" style="edgeLabel;html=1;align=center;verticalAlign=middle;resizable=0;points=[];" parent="YtwmLYCVhBaYAQ8aIxp3-6" vertex="1" connectable="0">
          <mxGeometry x="-0.755" y="-3" relative="1" as="geometry">
            <mxPoint as="offset" />
          </mxGeometry>
        </mxCell>
        <mxCell id="YtwmLYCVhBaYAQ8aIxp3-17" value="是" style="edgeStyle=orthogonalEdgeStyle;rounded=0;orthogonalLoop=1;jettySize=auto;html=1;" parent="1" source="YtwmLYCVhBaYAQ8aIxp3-7" target="YtwmLYCVhBaYAQ8aIxp3-9" edge="1">
          <mxGeometry relative="1" as="geometry" />
        </mxCell>
        <mxCell id="YtwmLYCVhBaYAQ8aIxp3-7" value="是否阶段满级" style="rhombus;whiteSpace=wrap;html=1;strokeWidth=2;" parent="1" vertex="1">
          <mxGeometry x="2720" y="1240" width="80" height="80" as="geometry" />
        </mxCell>
        <mxCell id="YtwmLYCVhBaYAQ8aIxp3-8" value="是" style="edgeStyle=orthogonalEdgeStyle;rounded=0;orthogonalLoop=1;jettySize=auto;html=1;" parent="1" source="YtwmLYCVhBaYAQ8aIxp3-9" target="YtwmLYCVhBaYAQ8aIxp3-13" edge="1">
          <mxGeometry relative="1" as="geometry">
            <mxPoint x="2760" y="1490" as="targetPoint" />
          </mxGeometry>
        </mxCell>
        <mxCell id="YtwmLYCVhBaYAQ8aIxp3-19" style="edgeStyle=orthogonalEdgeStyle;rounded=0;orthogonalLoop=1;jettySize=auto;html=1;" parent="1" source="YtwmLYCVhBaYAQ8aIxp3-9" target="YtwmLYCVhBaYAQ8aIxp3-15" edge="1">
          <mxGeometry relative="1" as="geometry" />
        </mxCell>
        <mxCell id="YtwmLYCVhBaYAQ8aIxp3-20" value="否" style="edgeLabel;html=1;align=center;verticalAlign=middle;resizable=0;points=[];" parent="YtwmLYCVhBaYAQ8aIxp3-19" vertex="1" connectable="0">
          <mxGeometry x="-0.7155" y="-2" relative="1" as="geometry">
            <mxPoint as="offset" />
          </mxGeometry>
        </mxCell>
        <mxCell id="YtwmLYCVhBaYAQ8aIxp3-9" value="数量&lt;br&gt;是否足够" style="rhombus;whiteSpace=wrap;html=1;strokeWidth=2;" parent="1" vertex="1">
          <mxGeometry x="2720" y="1360" width="80" height="80" as="geometry" />
        </mxCell>
        <mxCell id="YtwmLYCVhBaYAQ8aIxp3-12" value="" style="edgeStyle=orthogonalEdgeStyle;rounded=0;orthogonalLoop=1;jettySize=auto;html=1;" parent="1" source="YtwmLYCVhBaYAQ8aIxp3-13" target="YtwmLYCVhBaYAQ8aIxp3-16" edge="1">
          <mxGeometry relative="1" as="geometry" />
        </mxCell>
        <mxCell id="YtwmLYCVhBaYAQ8aIxp3-13" value="更新武将卡背包" style="whiteSpace=wrap;html=1;strokeWidth=2;" parent="1" vertex="1">
          <mxGeometry x="2700" y="1480" width="120" height="60" as="geometry" />
        </mxCell>
        <mxCell id="YtwmLYCVhBaYAQ8aIxp3-14" style="edgeStyle=orthogonalEdgeStyle;rounded=0;orthogonalLoop=1;jettySize=auto;html=1;entryX=1;entryY=0.5;entryDx=0;entryDy=0;entryPerimeter=0;" parent="1" source="YtwmLYCVhBaYAQ8aIxp3-15" target="YtwmLYCVhBaYAQ8aIxp3-16" edge="1">
          <mxGeometry relative="1" as="geometry">
            <Array as="points">
              <mxPoint x="2930" y="1600" />
            </Array>
          </mxGeometry>
        </mxCell>
        <mxCell id="YtwmLYCVhBaYAQ8aIxp3-15" value="抛异常" style="whiteSpace=wrap;html=1;strokeWidth=2;" parent="1" vertex="1">
          <mxGeometry x="2860" y="1570" width="120" height="60" as="geometry" />
        </mxCell>
        <mxCell id="YtwmLYCVhBaYAQ8aIxp3-16" value="结束" style="strokeWidth=2;html=1;shape=mxgraph.flowchart.terminator;whiteSpace=wrap;" parent="1" vertex="1">
          <mxGeometry x="2710" y="1570" width="100" height="60" as="geometry" />
        </mxCell>
      </root>
    </mxGraphModel>
  </diagram>
  <diagram id="BqJ7H8ti3R3jPWu5Jcrs" name="武将卡强化">
    <mxGraphModel dx="1674" dy="764" grid="1" gridSize="10" guides="1" tooltips="1" connect="1" arrows="1" fold="1" page="1" pageScale="1" pageWidth="3300" pageHeight="4681" math="0" shadow="0">
      <root>
        <mxCell id="0" />
        <mxCell id="1" parent="0" />
      </root>
    </mxGraphModel>
  </diagram>
  <diagram id="_JnLsxfe3Nq8Rdhrjrvx" name="第 4 页">
    <mxGraphModel dx="1674" dy="764" grid="1" gridSize="10" guides="1" tooltips="1" connect="1" arrows="1" fold="1" page="1" pageScale="1" pageWidth="3300" pageHeight="4681" math="0" shadow="0">
      <root>
        <mxCell id="0" />
        <mxCell id="1" parent="0" />
        <mxCell id="_ZYSCoQYJGfIZROxsuvH-15" value="z_award_lib" style="rounded=1;whiteSpace=wrap;html=1;absoluteArcSize=1;arcSize=14;strokeWidth=2;" vertex="1" parent="1">
          <mxGeometry x="370" y="580" width="100" height="100" as="geometry" />
        </mxCell>
        <mxCell id="_ZYSCoQYJGfIZROxsuvH-16" value="z_award_maker" style="rounded=1;whiteSpace=wrap;html=1;absoluteArcSize=1;arcSize=14;strokeWidth=2;" vertex="1" parent="1">
          <mxGeometry x="530" y="390" width="100" height="100" as="geometry" />
        </mxCell>
        <mxCell id="_ZYSCoQYJGfIZROxsuvH-17" value="db" style="rounded=1;whiteSpace=wrap;html=1;absoluteArcSize=1;arcSize=14;strokeWidth=2;" vertex="1" parent="1">
          <mxGeometry x="530" y="190" width="100" height="100" as="geometry" />
        </mxCell>
        <mxCell id="_ZYSCoQYJGfIZROxsuvH-18" value="z_award_handle" style="rounded=1;whiteSpace=wrap;html=1;absoluteArcSize=1;arcSize=14;strokeWidth=2;" vertex="1" parent="1">
          <mxGeometry x="530" y="580" width="100" height="100" as="geometry" />
        </mxCell>
        <mxCell id="_ZYSCoQYJGfIZROxsuvH-19" value="z_award_expend" style="rounded=1;whiteSpace=wrap;html=1;absoluteArcSize=1;arcSize=14;strokeWidth=2;" vertex="1" parent="1">
          <mxGeometry x="720" y="580" width="100" height="100" as="geometry" />
        </mxCell>
        <mxCell id="_ZYSCoQYJGfIZROxsuvH-20" value="AwardGiveM" style="rounded=1;whiteSpace=wrap;html=1;absoluteArcSize=1;arcSize=14;strokeWidth=2;" vertex="1" parent="1">
          <mxGeometry x="350" y="770" width="100" height="100" as="geometry" />
        </mxCell>
        <mxCell id="_ZYSCoQYJGfIZROxsuvH-21" value="TableKeysM" style="rounded=1;whiteSpace=wrap;html=1;absoluteArcSize=1;arcSize=14;strokeWidth=2;" vertex="1" parent="1">
          <mxGeometry x="720" y="760" width="100" height="100" as="geometry" />
        </mxCell>
        <mxCell id="_ZYSCoQYJGfIZROxsuvH-22" value="ExpendM" style="rounded=1;whiteSpace=wrap;html=1;absoluteArcSize=1;arcSize=14;strokeWidth=2;" vertex="1" parent="1">
          <mxGeometry x="520" y="770" width="100" height="100" as="geometry" />
        </mxCell>
        <mxCell id="_ZYSCoQYJGfIZROxsuvH-25" value="z_award_maker:get(Src, RoleUid, ServerId, Args, AwardInfo, Num)" style="text;whiteSpace=wrap;" vertex="1" parent="1">
          <mxGeometry x="382.5" y="1160" width="390" height="40" as="geometry" />
        </mxCell>
        <mxCell id="_ZYSCoQYJGfIZROxsuvH-27" value="z_award_maker:give_award(Src, RoleUid, ServerId, Args, AwardInfo)" style="text;whiteSpace=wrap;" vertex="1" parent="1">
          <mxGeometry x="382.5" y="1070" width="400" height="40" as="geometry" />
        </mxCell>
        <mxCell id="_ZYSCoQYJGfIZROxsuvH-29" value="{&#39;$PreReward&#39;, {Src, RoleUid, ServerId, Args}, Awards}" style="text;whiteSpace=wrap;" vertex="1" parent="1">
          <mxGeometry x="382.5" y="1230" width="320" height="40" as="geometry" />
        </mxCell>
        <mxCell id="_ZYSCoQYJGfIZROxsuvH-37" value="" style="edgeStyle=orthogonalEdgeStyle;rounded=0;orthogonalLoop=1;jettySize=auto;html=1;" edge="1" parent="1" source="_ZYSCoQYJGfIZROxsuvH-33" target="_ZYSCoQYJGfIZROxsuvH-35">
          <mxGeometry relative="1" as="geometry" />
        </mxCell>
        <mxCell id="_ZYSCoQYJGfIZROxsuvH-33" value="" style="strokeWidth=2;html=1;shape=mxgraph.flowchart.start_1;whiteSpace=wrap;" vertex="1" parent="1">
          <mxGeometry x="530" y="910" width="100" height="60" as="geometry" />
        </mxCell>
        <mxCell id="_ZYSCoQYJGfIZROxsuvH-38" value="" style="edgeStyle=orthogonalEdgeStyle;rounded=0;orthogonalLoop=1;jettySize=auto;html=1;" edge="1" parent="1" source="_ZYSCoQYJGfIZROxsuvH-35" target="_ZYSCoQYJGfIZROxsuvH-27">
          <mxGeometry relative="1" as="geometry" />
        </mxCell>
        <mxCell id="_ZYSCoQYJGfIZROxsuvH-35" value="AwardInfo" style="text;whiteSpace=wrap;" vertex="1" parent="1">
          <mxGeometry x="537.5" y="1000" width="90" height="40" as="geometry" />
        </mxCell>
        <mxCell id="_ZYSCoQYJGfIZROxsuvH-39" value="" style="endArrow=classic;html=1;rounded=0;exitX=0.154;exitY=1.1;exitDx=0;exitDy=0;exitPerimeter=0;entryX=0.158;entryY=-0.075;entryDx=0;entryDy=0;entryPerimeter=0;" edge="1" parent="1" source="_ZYSCoQYJGfIZROxsuvH-27" target="_ZYSCoQYJGfIZROxsuvH-25">
          <mxGeometry width="50" height="50" relative="1" as="geometry">
            <mxPoint x="660" y="1210" as="sourcePoint" />
            <mxPoint x="710" y="1160" as="targetPoint" />
          </mxGeometry>
        </mxCell>
        <mxCell id="_ZYSCoQYJGfIZROxsuvH-40" value="z_award_maker:give_award({&#39;$PreReward&#39;, {Src, RoleUid, ServerId, Args}, Awards})" style="text;whiteSpace=wrap;" vertex="1" parent="1">
          <mxGeometry x="370" y="1290" width="480" height="40" as="geometry" />
        </mxCell>
        <mxCell id="_ZYSCoQYJGfIZROxsuvH-42" value="AwardLogs" style="text;whiteSpace=wrap;" vertex="1" parent="1">
          <mxGeometry x="410" y="1580" width="90" height="40" as="geometry" />
        </mxCell>
        <mxCell id="_ZYSCoQYJGfIZROxsuvH-44" value="z_award_handle:award_tablekeys(Src, RoleUid, ServerId, Args, Awards)" style="text;whiteSpace=wrap;" vertex="1" parent="1">
          <mxGeometry x="360" y="1380" width="420" height="40" as="geometry" />
        </mxCell>
        <mxCell id="_ZYSCoQYJGfIZROxsuvH-45" value="z_award_handle:transaction(fun award_tran_/2, {Src, RoleUid, ServerId, Args, Awards}, TableKeys)" style="text;whiteSpace=wrap;" vertex="1" parent="1">
          <mxGeometry x="360" y="1440" width="560" height="50" as="geometry" />
        </mxCell>
        <mxCell id="_ZYSCoQYJGfIZROxsuvH-46" value="z_award_give:give_award(Src, RoleUid, ServerId, Args, Awards, DBMap)" style="text;whiteSpace=wrap;" vertex="1" parent="1">
          <mxGeometry x="362.5" y="1500" width="420" height="40" as="geometry" />
        </mxCell>
      </root>
    </mxGraphModel>
  </diagram>
</mxfile>
